<?xml version="1.0" encoding="utf-8"?>
<!-- Generator: Adobe Illustrator 22.0.0, SVG Export Plug-In . SVG Version: 6.00 Build 0)  -->
<svg version="1.1" id="Layer_1" xmlns="http://www.w3.org/2000/svg" xmlns:xlink="http://www.w3.org/1999/xlink" x="0px" y="0px"
	 viewBox="0 0 300 300" style="enable-background:new 0 0 300 300;" xml:space="preserve">
<g>
	<g>
		<path d="M150,0C67.2,0,0,67.2,0,150s67.2,150,150,150s150-67.2,150-150S232.8,0,150,0z M228.4,122.8l-86.7,81.4
			c-1.9,1.7-4.1,2.9-6.4,3.5c-2,0.9-4.1,1.3-6.2,1.3c-3.8,0-7.6-1.4-10.6-4.2L71.3,160c-6.1-5.8-6.4-15.5-0.6-21.7
			c5.8-6.1,15.5-6.4,21.7-0.6l37.6,35.7l77.8-73.4c6.3-5.7,16-5.2,21.7,1.1C235.2,107.4,234.7,117.2,228.4,122.8z"/>
	</g>
</g>
</svg>
